<svg width="40" height="41" viewBox="0 0 40 41" fill="none" xmlns="http://www.w3.org/2000/svg">
  <path d="M35.5546 5.35254H11.8055C11.0076 5.35342 10.361 5.96503 10.3601 6.71977V12.9163L9.27409 11.3753C8.77698 10.666 7.77725 10.4532 7.00688 10.8928L4.77255 12.1635C4.04084 12.5696 3.50407 13.2283 3.27505 14.001C2.45998 16.8084 3.06476 21.6451 10.5699 28.7456C16.5383 34.3856 20.9883 35.9046 24.0553 35.9046C24.7653 35.9076 25.4727 35.8204 26.1581 35.6451C26.9747 35.4284 27.6709 34.9214 28.1011 34.2302L29.4428 32.1144C29.9056 31.3862 29.6808 30.4425 28.9326 29.9724L23.5825 26.5988C22.8486 26.1396 21.8649 26.2906 21.3221 26.9457L19.7645 28.84C19.6017 29.0427 19.3064 29.1017 19.0707 28.9788L18.7743 28.8244C17.7988 28.3215 16.5847 27.6952 14.1327 25.3758C13.8674 25.1248 13.6271 24.89 13.4015 24.6653H35.5546C36.3505 24.6659 36.9969 24.0573 37 23.3045V6.71977C36.9991 5.96503 36.3525 5.35342 35.5546 5.35254ZM18.2319 29.766L18.5198 29.9156C19.2436 30.2984 20.1547 30.1208 20.6595 29.4984L22.2171 27.6042C22.3942 27.3908 22.7146 27.3416 22.9539 27.491L28.304 30.8646C28.547 31.0178 28.6201 31.3246 28.4701 31.5616L27.1285 33.6774C26.8483 34.1318 26.3931 34.4661 25.8582 34.6103C23.179 35.3073 18.4898 34.7175 11.3729 27.9849C4.25605 21.2522 3.63493 16.8169 4.37003 14.2846C4.52234 13.7787 4.87551 13.3482 5.35567 13.0831L7.59233 11.8134C7.84294 11.6718 8.16702 11.7408 8.32916 11.9705L11.8972 17.0314C12.0554 17.2577 12.0034 17.561 11.7776 17.7284L9.77445 19.2023C9.11666 19.6796 8.92882 20.5413 9.33347 21.2258L9.49215 21.4982C10.0589 22.4815 10.7635 23.705 13.3317 26.1339C15.9 28.5628 17.1929 29.2298 18.2319 29.766ZM35.8664 23.3046C35.8646 23.4658 35.7251 23.5953 35.5547 23.5941H12.379C11.6429 22.7977 11.0081 21.9225 10.4876 20.9862L10.3243 20.7047C10.1941 20.4822 10.2564 20.2031 10.4706 20.0495L12.4737 18.5755C13.1665 18.0622 13.3261 17.1315 12.8404 16.4373L11.4937 14.5253V6.71977C11.4927 6.64129 11.5253 6.56577 11.5839 6.51029C11.6426 6.45481 11.7224 6.42402 11.8054 6.4249H35.5546C35.6376 6.42402 35.7174 6.45481 35.7761 6.51029C35.8347 6.56577 35.8673 6.64129 35.8664 6.71977V23.3046H35.8664Z" fill="black" stroke="black" stroke-width="0.8"/>
  <path d="M35.101 6.43426L24.4108 15.2102C24.1083 15.4481 23.6988 15.4481 23.3963 15.2102L12.7101 6.43426C12.4285 6.20309 12.0271 6.26281 11.8137 6.56757C11.6001 6.87232 11.6553 7.30682 11.9368 7.5379L22.6244 16.3131C23.3848 16.9212 24.4225 16.9212 25.1829 16.3131L35.8737 7.5379C36.009 7.42691 36.098 7.26219 36.121 7.08012C36.144 6.89804 36.0992 6.71354 35.9965 6.56724C35.783 6.26305 35.3823 6.20358 35.101 6.43426Z" fill="black" stroke="black" stroke-width="0.8"/>
  <path d="M19.9542 13.5035L11.8949 22.3903C11.5986 22.7176 11.616 23.2303 11.9338 23.5354C12.2516 23.8406 12.7496 23.8226 13.0459 23.4954L21.1053 14.6045C21.3716 14.2738 21.3407 13.7865 21.0351 13.494C20.7293 13.2015 20.2551 13.2057 19.9542 13.5035Z" fill="black" stroke="black" stroke-width="0.4"/>
  <path d="M27.8828 13.5129C27.5873 13.2138 27.0909 13.1973 26.774 13.4762C26.4571 13.7551 26.4396 14.2236 26.7352 14.5228L34.7688 23.5175C35.0642 23.8166 35.5606 23.8331 35.8776 23.5541C36.1945 23.2753 36.2119 22.8068 35.9164 22.5076L27.8828 13.5129Z" fill="black" stroke="black" stroke-width="0.4"/>
</svg>
