<svg width="40" height="41" viewBox="0 0 40 41" fill="none" xmlns="http://www.w3.org/2000/svg">
  <path d="M19.6562 2.35254C12.6776 2.35254 7 8.03013 7 15.0088C7 17.3666 7.65313 19.6677 8.88923 21.664L18.9358 37.854C19.1283 38.1641 19.4673 38.3525 19.832 38.3525C19.8348 38.3525 19.8375 38.3525 19.8403 38.3525C20.2081 38.3497 20.5479 38.1554 20.7368 37.8398L30.5273 21.493C31.6952 19.5389 32.3125 17.2967 32.3125 15.0088C32.3125 8.03013 26.6349 2.35254 19.6562 2.35254ZM28.7171 20.4101L19.816 35.2719L10.6821 20.5526C9.65317 18.891 9.09531 16.974 9.09531 15.0088C9.09531 9.19324 13.8407 4.44785 19.6562 4.44785C25.4718 4.44785 30.2102 9.19324 30.2102 15.0088C30.2102 16.9157 29.6891 18.7837 28.7171 20.4101Z" fill="black"/>
  <path d="M19.6562 8.68066C16.1669 8.68066 13.3281 11.5195 13.3281 15.0088C13.3281 18.4758 16.1207 21.3369 19.6562 21.3369C23.2354 21.3369 25.9844 18.4377 25.9844 15.0088C25.9844 11.5195 23.1456 8.68066 19.6562 8.68066ZM19.6562 19.2416C17.3179 19.2416 15.4234 17.3408 15.4234 15.0088C15.4234 12.6826 17.33 10.776 19.6562 10.776C21.9825 10.776 23.882 12.6826 23.882 15.0088C23.882 17.3068 22.0317 19.2416 19.6562 19.2416Z" fill="black"/>
</svg>
