<svg xmlns="http://www.w3.org/2000/svg" viewBox="0 0 135.26 30.95"><title>logo</title><polygon points="28.45 6.25 28.45 1.25 0 1.25 0 6.25 11.67 6.25 11.67 24.7 0 24.7 0 29.7 28.45 29.7 28.45 24.7 16.79 24.7 16.79 6.25 28.45 6.25" fill="#231f20"/><polygon points="99.42 6.23 99.42 1.25 70.74 1.25 70.74 29.7 99.42 29.7 99.42 24.72 75.88 24.72 75.88 17.97 94.26 17.97 94.26 12.99 75.88 12.99 75.88 6.23 99.42 6.23" fill="#231f20"/><path d="M49.87,0H36V28.45H49.59c8.83-.1,14.91-6.28,14.91-14.26S58.55.22,49.87,0Zm-.25,23.56H41.07V4.89H49.7c5.6.14,9.24,4.05,9.24,9.37S55.26,23.46,49.62,23.56Z" transform="translate(0 1.25)" fill="#231f20"/><path d="M119.63-1.25A15.56,15.56,0,0,0,104,14.22a15.64,15.64,0,0,0,31.27,0A15.55,15.55,0,0,0,119.63-1.25Zm0,25.61a10.14,10.14,0,1,1,10.24-10.14A10.19,10.19,0,0,1,119.63,24.36Z" transform="translate(0 1.25)" fill="#231f20"/></svg>