<?xml version="1.0" encoding="utf-8"?>
<!-- Generator: Adobe Illustrator 23.0.1, SVG Export Plug-In . SVG Version: 6.00 Build 0)  -->
<svg version="1.1" id="Layer_1" xmlns="http://www.w3.org/2000/svg" xmlns:xlink="http://www.w3.org/1999/xlink" x="0px" y="0px"
	 viewBox="0 0 135.3 31" style="enable-background:new 0 0 135.3 31;" xml:space="preserve">
<style type="text/css">
	.st0{fill:#FFFFFF;}
</style>
<title>logo</title>
<polygon class="st0" points="28.5,6.2 28.5,1.2 0,1.2 0,6.2 11.7,6.2 11.7,24.7 0,24.7 0,29.7 28.5,29.7 28.5,24.7 16.8,24.7 
	16.8,6.2 "/>
<polygon class="st0" points="99.4,6.2 99.4,1.2 70.7,1.2 70.7,29.7 99.4,29.7 99.4,24.7 75.9,24.7 75.9,18 94.3,18 94.3,13 75.9,13 
	75.9,6.2 "/>
<path class="st0" d="M49.9,1.2H36v28.5h13.6c8.8-0.1,14.9-6.3,14.9-14.3S58.5,1.5,49.9,1.2z M49.6,24.8h-8.5V6.1h8.6
	c5.6,0.1,9.2,4.1,9.2,9.4S55.3,24.7,49.6,24.8z"/>
<path class="st0" d="M119.6,0C111,0,104,6.9,104,15.5c0.2,8.6,7.4,15.5,16,15.2c8.3-0.2,15-6.9,15.2-15.2C135.2,6.9,128.2,0,119.6,0
	C119.6,0,119.6,0,119.6,0z M119.6,25.6c-5.6-0.1-10.1-4.6-10-10.2c0.1-5.6,4.6-10.1,10.2-10c5.6,0.1,10,4.6,10,10.1
	C129.8,21.1,125.3,25.6,119.6,25.6C119.6,25.6,119.6,25.6,119.6,25.6z"/>
</svg>
