<?xml version="1.0" encoding="utf-8"?>
<!-- Generator: Adobe Illustrator 23.0.1, SVG Export Plug-In . SVG Version: 6.00 Build 0)  -->
<svg version="1.1" id="Layer_1" xmlns="http://www.w3.org/2000/svg" xmlns:xlink="http://www.w3.org/1999/xlink" x="0px" y="0px"
	 viewBox="0 0 576 67.3" style="enable-background:new 0 0 576 67.3;" xml:space="preserve">
<style type="text/css">
	.st0{fill:#FFFFFF;}
</style>
<g id="Guides_For_Artboard">
</g>
<path class="st0" d="M118,0.6c-9,0-17.5,1.8-25.3,5C84.5,2,75.5,0,66,0C29.8,0,0.3,29.3,0,65.4h27.6c0.3-20.5,16.8-37.1,37.2-37.7
	C57,38.3,52.3,51.3,52,65.4h27.6C80,54.6,84.9,45,92.3,38.2c7.2,6.9,11.8,16.5,12,27.2h27.6c-0.1-13.7-4.5-26.5-11.8-37
	c19.7,1.1,35.6,17.2,36.2,37h27.6C183.3,29.6,154,0.6,118,0.6z"/>
<g>
	<path class="st0" d="M280,25.5h-20.2v40H280c5.6,0,10.4-1.9,14.3-5.7c4-3.8,5.9-8.5,5.9-14.1s-2-10.3-5.9-14.2
		C290.3,27.4,285.5,25.5,280,25.5z M289.3,54.7c-2.6,2.5-5.7,3.7-9.3,3.7h-13.2v-26H280c3.6,0,6.7,1.3,9.3,3.8
		c2.6,2.6,3.9,5.7,3.9,9.3C293.2,49.2,291.9,52.2,289.3,54.7z"/>
	<path class="st0" d="M416.8,39.3c-3.4,0-6.2,2.8-6.2,6.2s2.8,6.2,6.2,6.2c3.4,0,6.2-2.8,6.2-6.2S420.3,39.3,416.8,39.3z"/>
	<polygon class="st0" points="208.4,32.5 225,32.5 225,58.4 208.4,58.4 208.4,65.5 248.5,65.5 248.5,58.4 231.9,58.4 231.9,32.5 
		248.5,32.5 248.5,25.5 208.4,25.5 	"/>
	<polygon class="st0" points="310,65.5 350.2,65.5 350.2,58.4 317,58.4 317,48.9 343.2,48.9 343.2,41.9 317,41.9 317,32.5 
		350.2,32.5 350.2,25.4 310,25.4 	"/>
	<path class="st0" d="M379.6,23.6c-12.1,0-21.9,9.8-21.9,21.9s9.8,21.9,21.9,21.9s21.9-9.8,21.9-21.9S391.7,23.6,379.6,23.6z
		 M379.6,60.3c-8.2,0-14.9-6.7-14.9-14.9s6.7-14.9,14.9-14.9c8.2,0,14.9,6.7,14.9,14.9C394.5,53.7,387.8,60.3,379.6,60.3z"/>
	<path class="st0" d="M454.1,23.6c-12.1,0-21.9,9.8-21.9,21.9s9.8,21.9,21.9,21.9S476,57.6,476,45.5
		C475.9,33.4,466.1,23.6,454.1,23.6z M454.1,60.3c-8.2,0-14.9-6.7-14.9-14.9s6.7-14.9,14.9-14.9c8.2,0,14.9,6.7,14.9,14.9
		C468.9,53.7,462.3,60.3,454.1,60.3z"/>
	<path class="st0" d="M524.5,37.8c0-3.4-1.4-6.3-3.4-8.4c-2.4-2.5-5.8-4-10.3-4s-25.5,0-25.5,0v40h7V50.6c0,0,11.2,0,17.3,0
		l8.9,14.8h8.2l-9.4-16C521.3,47.5,524.5,43.3,524.5,37.8z M511.2,43.6c-2.1,0-18.9,0-18.9,0V32.4c0,0,16.1,0,18.5,0
		s3.9,0.6,4.9,1.6s1.7,2.4,1.7,4s-0.6,2.9-1.6,3.9C514.8,43,513.3,43.6,511.2,43.6z"/>
	<path class="st0" d="M575.8,42.8h-21.1v6.7h13.6c-1.9,6.4-7.9,11-14.9,10.7c-8.2-0.4-14.6-7.3-14.2-15.5
		c0.4-8.2,7.3-14.6,15.5-14.2c4.1,0.2,8.4,2.3,10.8,5.3l5.9-3.8c-3.8-5-9.9-8.3-16.4-8.5c-12.1-0.5-22.3,8.8-22.8,20.9
		s8.8,22.3,20.9,22.8c12.1,0.5,22.3-8.8,22.8-20.9C576,45.1,576,43.9,575.8,42.8z"/>
</g>
<path class="st0" d="M79.7,65.4c0.7-20.6,17.6-37.1,38.3-37.1s37.7,16.6,38.3,37.1h27.6C183.3,29.6,154,0.6,118,0.6
	s-65.3,29-66,64.8H79.7z"/>
<path class="st0" d="M27.6,65.4C27.9,44.5,45,27.6,66,27.6c20.9,0,38,16.9,38.3,37.8h27.6C131.6,29.3,102.1,0,66,0
	C29.8,0,0.3,29.3,0,65.4H27.6z"/>
<g>
	<g>
		<path class="st0" d="M66,27.6c10.2,0,19.5,4,26.4,10.5c6.8-6.1,15.8-9.9,25.7-9.9c0.7,0,1.4,0,2.1,0.1
			c-6.9-9.8-16.3-17.7-27.4-22.6C81.6,10.4,72,18,64.9,27.7C65.2,27.6,65.6,27.6,66,27.6z"/>
	</g>
</g>
</svg>
