<svg width="40" height="41" viewBox="0 0 40 41" fill="none" xmlns="http://www.w3.org/2000/svg">
  <rect width="40" height="40" transform="translate(0 0.352539)" fill="white"/>
  <path d="M36.8184 15.0952C32.3335 10.1021 26.3599 7.35254 20 7.35254C13.6401 7.35254 7.66716 10.1014 3.18158 15.0952C2.93947 15.3647 2.93947 15.8003 3.18158 16.0698C3.4237 16.3393 3.81504 16.3393 4.05715 16.0698C8.30866 11.3366 13.9707 8.7304 20 8.7304C26.0293 8.7304 31.6913 11.3366 35.9429 16.0691C36.0636 16.2035 36.2221 16.2711 36.3806 16.2711C36.5392 16.2711 36.6977 16.2035 36.8184 16.0691C37.0605 15.8003 37.0605 15.364 36.8184 15.0952Z" fill="black" stroke="black"/>
  <path d="M6.76152 19.1404C6.5183 19.4119 6.5183 19.8508 6.76152 20.1224C6.88281 20.2578 7.04206 20.3258 7.2013 20.3258C7.36054 20.3258 7.51979 20.2578 7.64109 20.1224C14.4556 12.5139 25.5441 12.5139 32.3592 20.1224C32.6024 20.3939 32.9956 20.3939 33.2388 20.1224C33.482 19.8508 33.482 19.4119 33.2388 19.1404C25.9397 10.9917 14.0618 10.9903 6.76152 19.1404Z" fill="black" stroke="black"/>
  <path d="M19.9998 18.7046C16.3476 18.7046 12.9179 20.2946 10.3416 23.181C10.0964 23.4557 10.0964 23.8998 10.3416 24.1745C10.5867 24.4493 10.983 24.4493 11.2282 24.1745C13.5675 21.5537 16.6824 20.1098 19.9998 20.1098C23.3173 20.1098 26.4322 21.5537 28.7715 24.1745C28.8938 24.3115 29.0543 24.3804 29.2148 24.3804C29.3753 24.3804 29.5358 24.3115 29.6581 24.1745C29.9032 23.8998 29.9032 23.4557 29.6581 23.181C27.0824 20.2946 23.6521 18.7046 19.9998 18.7046Z" fill="black" stroke="black"/>
  <path d="M19.9997 25.1914C17.5333 25.1914 15.5264 27.01 15.5264 29.2457C15.5264 31.4813 17.5333 33.3 19.9997 33.3C22.4668 33.3 24.4737 31.4813 24.4737 29.2457C24.4737 27.01 22.4668 25.1914 19.9997 25.1914ZM19.9997 32.0618C18.2858 32.0618 16.8921 30.7982 16.8921 29.2451C16.8921 27.6919 18.2864 26.4284 19.9997 26.4284C21.713 26.4284 23.108 27.6919 23.108 29.2451C23.108 30.7982 21.7137 32.0618 19.9997 32.0618Z" fill="black" stroke="black"/>
</svg>
